v 3.341096 -6.650612 -6.765958
v 7.341097 -10.322001 -0.890507
v 0.417113 -12.203617 2.647572
v -3.582888 -8.532227 -3.227880
v 3.582889 0.203615 -2.647569
v 7.582886 -3.467776 3.227884
v 0.658904 -5.349388 6.765958
v -3.341097 -1.677999 0.890507

vt 1.000000 0.333333
vt 1.000000 0.666667
vt 0.666667 0.666667
vt 0.666667 0.333333
vt 0.666667 0.000000
vt 0.000000 0.333333
vt 0.000000 0.000000
vt 0.333333 0.000000
vt 0.333333 1.000000
vt 0.000000 1.000000
vt 0.000000 0.666667
vt 0.333333 0.333333
vt 0.333333 0.666667
vt 1.000000 0.000000

vn 0.000000 -1.000000 0.000000
vn 0.000000 1.000000 0.000000
vn 1.000000 0.000000 0.000000
vn -0.000000 0.000000 1.000000
vn -1.000000 -0.000000 -0.000000
vn 0.000000 0.000000 -1.000000

f 2/1/1 3/2/1 4/3/1 
f 8/1/2 7/4/2 6/5/2 
f 5/6/3 6/7/3 2/8/3 
f 6/8/4 7/5/4 3/4/4 
f 3/9/5 7/10/5 8/11/5 
f 1/12/6 4/13/6 8/11/6 
f 1/4/1 2/1/1 4/3/1 
f 5/14/2 8/1/2 6/5/2 
f 1/12/3 5/6/3 2/8/3 
f 2/12/4 6/8/4 3/4/4 
f 4/13/5 3/9/5 8/11/5 
f 5/6/6 1/12/6 8/11/6 
